<svg width="40" height="40" viewBox="0 0 40 40" fill="none" xmlns="http://www.w3.org/2000/svg">
<g clip-path="url(#clip0_66_2609)">
<ellipse cx="20.0002" cy="37.6471" rx="15.2941" ry="2.35294" fill="#868686"/>
<path d="M19.9999 0C11.2302 0 4.09082 7.13939 4.09082 15.9152C4.09082 22.2545 7.80597 27.9273 13.5817 30.4727L19.0181 38.2727C19.2423 38.5939 19.612 38.7879 19.9999 38.7879C19.9999 38.7879 19.9999 38.7879 20.006 38.7879C20.3939 38.7879 20.7635 38.5939 20.9878 38.2727L26.4181 30.4727C32.1939 27.9273 35.909 22.2545 35.909 15.9152C35.909 7.13939 28.7757 0 19.9999 0ZM19.9999 24.5818C15.212 24.5818 11.3332 20.697 11.3332 15.9152C11.3332 11.1273 15.212 7.24848 19.9999 7.24848C24.7878 7.24848 28.6666 11.1273 28.6666 15.9152C28.6666 20.697 24.7878 24.5818 19.9999 24.5818Z" fill="#C78A5D"/>
</g>
<defs>
<clipPath id="clip0_66_2609">
<rect width="40" height="40" fill="white"/>
</clipPath>
</defs>
</svg>
