<svg width="17" height="18" viewBox="0 0 17 18" fill="none" xmlns="http://www.w3.org/2000/svg">
<path d="M0.138672 2.19938C0.138672 1.39438 0.733931 0.741051 1.46738 0.741051H14.7544C15.4879 0.741051 16.0831 1.39438 16.0831 2.19938V12.6161C16.0831 13.0028 15.9431 13.3738 15.6939 13.6472C15.4448 13.9207 15.1068 14.0744 14.7544 14.0744H7.39719L4.68436 17.0519C4.52951 17.2212 4.33246 17.3364 4.11804 17.383C3.90362 17.4296 3.68144 17.4055 3.4795 17.3137C3.27756 17.2219 3.10489 17.0665 2.98327 16.8672C2.86165 16.6678 2.79652 16.4335 2.79608 16.1936V14.0744H1.46738C1.11498 14.0744 0.777021 13.9207 0.52784 13.6472C0.27866 13.3738 0.138672 13.0028 0.138672 12.6161V2.19938ZM1.46738 1.99105C1.41703 1.99105 1.36875 2.013 1.33316 2.05207C1.29756 2.09114 1.27756 2.14413 1.27756 2.19938V12.6161C1.27756 12.7311 1.3626 12.8244 1.46738 12.8244H3.36552C3.51655 12.8244 3.66139 12.8902 3.76818 13.0074C3.87497 13.1247 3.93497 13.2836 3.93497 13.4494V16.1077L6.75941 13.0077C6.81222 12.9496 6.87494 12.9035 6.94399 12.8721C7.01304 12.8406 7.08706 12.8244 7.16182 12.8244H14.7544C14.8048 12.8244 14.853 12.8024 14.8886 12.7634C14.9242 12.7243 14.9442 12.6713 14.9442 12.6161V2.19938C14.9442 2.14413 14.9242 2.09114 14.8886 2.05207C14.853 2.013 14.8048 1.99105 14.7544 1.99105H1.46738Z" fill="#868686"/>
</svg>
