<svg width="12" height="11" viewBox="0 0 12 11" fill="none" xmlns="http://www.w3.org/2000/svg">
<path d="M0.75 1.29175C0.75 0.808748 1.142 0.416748 1.625 0.416748H10.375C10.858 0.416748 11.25 0.808748 11.25 1.29175V7.54175C11.25 7.77381 11.1578 7.99637 10.9937 8.16047C10.8296 8.32456 10.6071 8.41675 10.375 8.41675H5.53L3.7435 10.2032C3.64153 10.3048 3.51176 10.374 3.37056 10.4019C3.22936 10.4299 3.08304 10.4154 2.95006 10.3603C2.81707 10.3052 2.70336 10.212 2.62327 10.0924C2.54318 9.97282 2.50029 9.83219 2.5 9.68825V8.41675H1.625C1.39294 8.41675 1.17038 8.32456 1.00628 8.16047C0.842187 7.99637 0.75 7.77381 0.75 7.54175V1.29175ZM1.625 1.16675C1.59185 1.16675 1.56005 1.17992 1.53661 1.20336C1.51317 1.2268 1.5 1.2586 1.5 1.29175V7.54175C1.5 7.61075 1.556 7.66675 1.625 7.66675H2.875C2.97446 7.66675 3.06984 7.70626 3.14017 7.77658C3.21049 7.84691 3.25 7.94229 3.25 8.04175V9.63675L5.11 7.77675C5.14477 7.74189 5.18608 7.71424 5.23155 7.69536C5.27702 7.67649 5.32577 7.66676 5.375 7.66675H10.375C10.4082 7.66675 10.4399 7.65358 10.4634 7.63014C10.4868 7.60669 10.5 7.5749 10.5 7.54175V1.29175C10.5 1.2586 10.4868 1.2268 10.4634 1.20336C10.4399 1.17992 10.4082 1.16675 10.375 1.16675H1.625Z" fill="#868686"/>
</svg>
