<svg width="40" height="40" viewBox="0 0 40 40" fill="none" xmlns="http://www.w3.org/2000/svg">
<circle cx="20" cy="20" r="20" fill="#C78A5D"/>
<mask id="mask0_66_2586" style="mask-type:luminance" maskUnits="userSpaceOnUse" x="9" y="9" width="21" height="21">
<path d="M29.9989 9.09099H9.08984V30.0001H29.9989V9.09099Z" fill="white"/>
</mask>
<g mask="url(#mask0_66_2586)">
<path d="M13.13 9.14179C12.838 9.22466 12.3627 9.4499 12.0707 9.64327C11.5038 10.0215 10.6107 10.8332 10.1994 11.3432C9.82637 11.8085 9.46616 12.4354 9.30844 12.8944C9.13153 13.4107 9.07611 13.908 9.14219 14.3584C9.36172 15.8331 10.647 18.434 12.318 20.7778C13.5457 22.5011 14.8501 23.9417 16.3378 25.221C18.8443 27.3714 22.2481 29.3391 24.3562 29.8511C24.7867 29.9553 25.0425 29.985 25.4069 29.9723C25.7565 29.9596 25.9931 29.917 26.3128 29.8108C27.5277 29.4092 29.1262 27.9791 29.7443 26.7382C30.0342 26.1602 30.0768 25.5674 29.8594 25.2061C29.5802 24.745 28.7724 23.9758 27.6342 23.0897C26.9608 22.5648 25.9697 21.8997 25.539 21.6809L25.2471 21.5321L25.0147 21.5257C24.3497 21.5023 24.0875 21.7829 23.3053 23.3659C22.9238 24.1373 22.8663 24.2371 22.6809 24.4284C22.2461 24.8831 21.7047 25.0403 21.2102 24.8576C20.9971 24.7769 20.0124 24.1628 19.3985 23.7251C18.4649 23.06 17.6209 22.3289 16.8259 21.4981C15.6174 20.2317 14.963 19.3563 14.4494 18.3235C14.2171 17.8539 14.1744 17.7073 14.1915 17.4183C14.2149 17.0443 14.3407 16.7383 14.5602 16.5152C14.6753 16.4005 14.7371 16.3601 14.978 16.2432C15.1336 16.1689 15.3915 16.052 15.5492 15.9861C15.9541 15.814 16.082 15.7481 16.5275 15.4783C17.2309 15.0533 17.4653 14.7919 17.5037 14.3946C17.525 14.1566 17.4333 13.8782 17.1136 13.2131C16.7215 12.3993 16.455 11.9275 15.984 11.2263C15.6025 10.6547 15.3574 10.3445 15.027 10.0151C14.6199 9.60714 14.2107 9.32241 13.827 9.18004C13.648 9.11416 13.2963 9.09504 13.13 9.14179Z" fill="white"/>
</g>
</svg>
