<svg width="40" height="40" viewBox="0 0 40 40" fill="none" xmlns="http://www.w3.org/2000/svg">
<circle cx="20" cy="20" r="20" fill="url(#paint0_linear_29_306)"/>
<path d="M26.7175 12.1052L9.88718 18.6219C8.73858 19.0851 8.74523 19.7285 9.67645 20.0154L13.9975 21.3689L23.9951 15.0352C24.4678 14.7464 24.8997 14.9017 24.5447 15.2182L16.4447 22.5584H16.4428L16.4447 22.5594L16.1466 27.0315C16.5833 27.0315 16.7759 26.8304 17.0209 26.5931L19.1197 24.5438L23.4853 27.7817C24.2903 28.2268 24.8684 27.998 25.0687 27.0334L27.9345 13.472C28.2278 12.2911 27.4855 11.7564 26.7175 12.1052Z" fill="white"/>
<defs>
<linearGradient id="paint0_linear_29_306" x1="12" y1="-4.17232e-07" x2="26" y2="38" gradientUnits="userSpaceOnUse">
<stop stop-color="#A4DEFF"/>
<stop offset="1" stop-color="#3CB9FF"/>
</linearGradient>
</defs>
</svg>
