<svg width="40" height="40" viewBox="0 0 40 40" fill="none" xmlns="http://www.w3.org/2000/svg">
<circle cx="20" cy="20" r="20" fill="url(#paint0_linear_64_905)"/>
<g clip-path="url(#clip0_64_905)">
<path d="M30.4703 15.8816C30.6211 15.3738 30.4703 15 29.7452 15H27.3455C26.7344 15 26.4533 15.3209 26.3026 15.6784C26.3026 15.6784 25.0803 18.6481 23.3529 20.5737C22.7948 21.1303 22.5381 21.3091 22.2326 21.3091C22.0818 21.3091 21.8496 21.1303 21.8496 20.6225V15.8816C21.8496 15.2722 21.6785 15 21.1733 15H17.4007C17.0177 15 16.7896 15.2844 16.7896 15.5484C16.7896 16.1253 17.6533 16.2594 17.7429 17.8844V21.4106C17.7429 22.1825 17.6044 22.3247 17.2989 22.3247C16.484 22.3247 14.504 19.3428 13.3307 15.9303C13.0944 15.2681 12.8622 15 12.247 15H9.84738C9.16293 15 9.02441 15.3209 9.02441 15.6784C9.02441 16.3122 9.83923 19.4606 12.8174 23.6206C14.8015 26.4603 17.5963 28 20.1385 28C21.6663 28 21.8537 27.6587 21.8537 27.0697C21.8537 24.3559 21.7152 24.1 22.4811 24.1C22.8355 24.1 23.4466 24.2787 24.8726 25.6478C26.5022 27.2728 26.7711 28 27.6837 28H30.0833C30.7677 28 31.114 27.6587 30.9144 26.9844C30.4581 25.5666 27.374 22.6497 27.2355 22.4547C26.8811 21.9997 26.9829 21.7966 27.2355 21.3903C27.2396 21.3863 30.1689 17.275 30.4703 15.8816Z" fill="white"/>
</g>
<defs>
<linearGradient id="paint0_linear_64_905" x1="13" y1="6.57141e-07" x2="28.5" y2="38" gradientUnits="userSpaceOnUse">
<stop stop-color="#0077FF"/>
<stop offset="1" stop-color="#005FCC"/>
</linearGradient>
<clipPath id="clip0_64_905">
<rect width="22" height="13" fill="white" transform="translate(9 15)"/>
</clipPath>
</defs>
</svg>
