<svg width="40" height="40" viewBox="0 0 40 40" fill="none" xmlns="http://www.w3.org/2000/svg">
<circle cx="20" cy="20" r="20" fill="url(#paint0_linear_29_312)"/>
<path d="M24.498 21.9621C24.2547 21.8371 23.0426 21.2433 22.8172 21.163C22.5917 21.0782 22.4265 21.038 22.2636 21.288C22.0984 21.5357 21.6297 22.0871 21.4824 22.2545C21.3395 22.4197 21.1944 22.4398 20.9511 22.317C19.5047 21.5938 18.556 21.0268 17.6029 19.3907C17.3507 18.9554 17.8551 18.9866 18.3261 18.0469C18.4065 17.8817 18.3663 17.7411 18.3038 17.6161C18.2413 17.4911 17.7502 16.2813 17.5449 15.788C17.3462 15.3081 17.1408 15.375 16.9913 15.3661C16.8484 15.3572 16.6855 15.3572 16.5203 15.3572C16.3551 15.3572 16.0895 15.4197 15.864 15.663C15.6386 15.9107 15.0024 16.5067 15.0024 17.7166C15.0024 18.9264 15.8841 20.0982 16.0047 20.2634C16.1297 20.4286 17.739 22.9107 20.21 23.9799C21.7725 24.6541 22.3841 24.7121 23.1654 24.596C23.6408 24.5246 24.6207 24.0023 24.8239 23.4241C25.027 22.8482 25.027 22.3549 24.9667 22.2523C24.9065 22.1429 24.7413 22.0804 24.498 21.9621Z" fill="white"/>
<path d="M29.2233 16.125C28.7189 14.9263 27.9957 13.8504 27.0738 12.9263C26.1519 12.0045 25.076 11.279 23.8751 10.7768C22.6474 10.2612 21.3439 10 20.0001 10H19.9555C18.6028 10.0067 17.2925 10.2746 16.0604 10.8013C14.8707 11.3103 13.8037 12.0335 12.8908 12.9554C11.9778 13.8772 11.2613 14.9487 10.7658 16.1429C10.2524 17.3795 9.99343 18.6942 10.0001 20.0469C10.0068 21.596 10.3774 23.1339 11.0716 24.5089V27.9018C11.0716 28.4688 11.5314 28.9286 12.0983 28.9286H15.4934C16.8684 29.6228 18.4064 29.9933 19.9555 30H20.0024C21.3394 30 22.6363 29.7411 23.8573 29.2344C25.0515 28.7366 26.1251 28.0223 27.0448 27.1094C27.9666 26.1964 28.6921 25.1295 29.1988 23.9397C29.7256 22.7076 29.9934 21.3973 30.0001 20.0446C30.0068 18.6853 29.7434 17.3661 29.2233 16.125ZM25.8506 25.9018C24.2858 27.4509 22.2099 28.3036 20.0001 28.3036H19.9622C18.6162 28.2969 17.2791 27.9621 16.0983 27.3326L15.9108 27.2321H12.768V24.0893L12.6675 23.9018C12.0381 22.721 11.7033 21.3839 11.6966 20.0379C11.6876 17.8125 12.5381 15.7232 14.0983 14.1496C15.6564 12.5759 17.739 11.7054 19.9644 11.6964H20.0024C21.1184 11.6964 22.201 11.9129 23.2211 12.3415C24.2166 12.7589 25.1095 13.3594 25.8774 14.1272C26.643 14.8929 27.2457 15.7879 27.6631 16.7835C28.0961 17.8147 28.3126 18.9085 28.3082 20.0379C28.2948 22.2612 27.422 24.3438 25.8506 25.9018Z" fill="white"/>
<defs>
<linearGradient id="paint0_linear_29_312" x1="13" y1="6.57141e-07" x2="28.5" y2="38" gradientUnits="userSpaceOnUse">
<stop stop-color="#51F04E"/>
<stop offset="1" stop-color="#2FB32D"/>
</linearGradient>
</defs>
</svg>
